# xmcd
#
# Track frame offsets:
# 150
# 14801
# 28917
# 42840
# 55623
# 69793
# 83982
# 98227
# 111435
#
# Disc length: 1685 seconds
#
#
# Revision: 1
# Processed by: cddbd v1.4PL0 Copyright (c) Steve Scherf et al.
# Submitted via: FreeRIP 2.52 
#
DISCID=73069309
DTITLE=Varios - Gala Eurovision
DYEAR=2002
DGENRE=Blues
TTITLE0=Urgente
TTITLE1=El Alma En Pie
TTITLE2=Un Sueño Especial
TTITLE3=Mas De Mil Noches
TTITLE4=Hay Que Vivir
TTITLE5=Corazón Latino
TTITLE6=La Magia Del Corazón
TTITLE7=Europe's Living A Celebration
TTITLE8=Miénteme
EXTD=Bustamante Bisbal Rosa
EXTT0=David Bustamante
EXTT1=David Bisbal
EXTT2=Rosa
EXTT3=David Bustamante
EXTT4=Rosa
EXTT5=David Bisbal
EXTT6=David Bustamante
EXTT7=Rosa
EXTT8=David Bisbal
PLAYORDER=
